{"title":"Scream Of The Banshee *2011* [DVDRip.XviD-miguel] [ENG]","uid":6582869,"size":831262532,"categoryP":"video","categoryS":"movies","magnet":"?xt=urn:btih:4775bfc141ec01ab8a404079f08c9c166034d22e&amp;dn=Scream+Of+The+Banshee+%2A2011%2A+%5BDVDRip.XviD-miguel%5D+%5BENG%5D&amp;tr=udp%3A%2F%2Ftracker.openbittorrent.com%3A80&amp;tr=udp%3A%2F%2Fopen.demonii.com%3A1337&amp;tr=udp%3A%2F%2Ftracker.coppersurfer.tk%3A6969&amp;tr=udp%3A%2F%2Fexodus.desync.com%3A6969","seeders":1,"leechers":1,"uploader":"miguel1983","files":-1,"time":1312486761,"description":" &lt;a href=&quot;http://img263.imageshack.us/img263/6200/screamofthebanshee2011d.jpg&quot; rel=&quot;nofollow&quot; target=&quot;_NEW&quot;&gt;http://img263.imageshack.us/img263/6200/screamofthebanshee2011d.jpg&lt;/a&gt;\n\nCountry.......: USA\nGenre.........: Horror\nDate release..: 26.03.2011 [World]\nDirector......: Steven C. Miller\nWriters.......: Anthony C. Ferrante, Anthony C. Ferrante\nDuration......: 90 min.\nMore..........: http://www.imdb.com/title/tt1548628\nTrailer.......: http://www.imdb.com/video/screenplay/vi58301721\nTrailer.......:\n\nPilot :\nAn archeology professor unearths a dangerous artifact, unwittingly releasing a creature that is able to kill with the power of its bone-splitting scream.\n\nCats :\nMonica Acosta   \t ...  \tDetective\nEric F. Adams \t... \tSamuel Page\nMarcelle Baer \t... \tShayla Whelan\nEdrick Browne \t... \tOfficer Sioux\nLeanne Cochran \t... \tJanie\nThomas C. Daniel \t... \tYoung Duncan\nKasey Amanda Emas \t... \tSchool Girl (as Kasey Amanda)\nTodd Haberkorn \t... \tOtto\nLucy Hale \t... \tLauren Abbott\nLance Henriksen \t... \tBroderick Duncan\nGarrett Hines \t... \tKurtis\nLauren Holly \t... \tProfessor Isla Whelan\nKayden Kessler \t... \tJenko Rodriguez\nDon Lincoln \t... \tDetective\nKim Ormiston \t... \tThe Banshee | Woman in the Red Cape \n\nData Technical :\n!!! SAMPLE !!!\nAudio.....: English\nSubtitles.: None\nFormat                           : AVI\nFormat/Info                      : Audio Video Interleave\nFile size                        : 789 MiB\nDuration                         : 1h 30mn\nOverall bit rate                 : 1 226 Kbps\nWriting library                  : VirtualDub build 32842/release\nVideo\nID                               : 0\nFormat                           : MPEG-4 Visual\nFormat profile                   : Advanced Simple@L5\nFormat settings, BVOP            : Yes\nFormat settings, QPel            : No\nFormat settings, GMC             : No warppoints\nFormat settings, Matrix          : Default (H.263)\nMuxing mode                      : Packed bitstream\nCodec ID                         : XVID\nCodec ID/Hint                    : XviD\nDuration                         : 1h 30mn\nBit rate                         : 958 Kbps\nWidth                            : 624 pixels\nHeight                           : 352 pixels\nDisplay aspect ratio             : 16:9\nFrame rate                       : 29.970 fps\nColor space                      : YUV\nChroma subsampling               : 4:2:0\nBit depth                        : 8 bits\nScan type                        : Progressive\nBits/(Pixel*Frame)               : 0.146\nStream size                      : 617 MiB (78%)\nWriting library                  : XviD 63\nAudio\nID                               : 1\nFormat                           : MPEG Audio\nFormat version                   : Version 1\nFormat profile                   : Layer 3\nMode                             : Joint stereo\nCodec ID                         : 55\nCodec ID/Hint                    : MP3\nDuration                         : 1h 30mn\nBit rate mode                    : Constant\nBit rate                         : 256 Kbps\nChannel(s)                       : 2 channels\nSampling rate                    : 48.0 KHz\nStream size                      : 165 MiB (21%)\nAlignment                        : Split accross interleaves\nInterleave, duration             : 33 ms (1.00 video frame)\nInterleave, preload duration     : 500 ms\nWriting library                  : LAME3.98 (beta)\n\nScreen : &lt;a href=&quot;\nhttp://img718.imageshack.us/img718/147/screamofthebanshee2011s.jpg&quot; rel=&quot;nofollow&quot; target=&quot;_NEW&quot;&gt;\nhttp://img718.imageshack.us/img718/147/screamofthebanshee2011s.jpg&lt;/a&gt; &lt;a href=&quot;\nhttp://img96.imageshack.us/img96/147/screamofthebanshee2011s.jpg&quot; rel=&quot;nofollow&quot; target=&quot;_NEW&quot;&gt;\nhttp://img96.imageshack.us/img96/147/screamofthebanshee2011s.jpg&lt;/a&gt; &lt;a href=&quot;\nhttp://img851.imageshack.us/img851/147/screamofthebanshee2011s.jpg&quot; rel=&quot;nofollow&quot; target=&quot;_NEW&quot;&gt;\nhttp://img851.imageshack.us/img851/147/screamofthebanshee2011s.jpg&lt;/a&gt; &lt;a href=&quot;\nhttp://img155.imageshack.us/img155/147/screamofthebanshee2011s.jpg&quot; rel=&quot;nofollow&quot; target=&quot;_NEW&quot;&gt;\nhttp://img155.imageshack.us/img155/147/screamofthebanshee2011s.jpg&lt;/a&gt; &lt;a href=&quot;\nhttp://img59.imageshack.us/img59/147/screamofthebanshee2011s.jpg&quot; rel=&quot;nofollow&quot; target=&quot;_NEW&quot;&gt;\nhttp://img59.imageshack.us/img59/147/screamofthebanshee2011s.jpg&lt;/a&gt;","torrent":{"xt":"urn:btih:4775bfc141ec01ab8a404079f08c9c166034d22e","amp;dn":"Scream+Of+The+Banshee+%2A2011%2A+%5BDVDRip.XviD-miguel%5D+%5BENG%5D","amp;tr":["udp%3A%2F%2Ftracker.openbittorrent.com%3A80","udp%3A%2F%2Fopen.demonii.com%3A1337","udp%3A%2F%2Ftracker.coppersurfer.tk%3A6969","udp%3A%2F%2Fexodus.desync.com%3A6969"],"infoHash":"4775bfc141ec01ab8a404079f08c9c166034d22e","infoHashBuffer":{"type":"Buffer","data":[71,117,191,193,65,236,1,171,138,64,64,121,240,140,156,22,96,52,210,46]},"announce":[],"urlList":[]}}